<svg id="Layer_1" data-name="Layer 1" xmlns="http://www.w3.org/2000/svg" viewBox="0 0 194.07 55.07"><defs><style>.cls-1{fill:#231f20;}</style></defs><title>Untitled-1</title><path class="cls-1" d="M49.13,449.41a368,368,0,0,1,44.55,1.26c6.41.57,6.37-9.44,0-10a368,368,0,0,0-44.55-1.26c-6.42.21-6.45,10.21,0,10Z" transform="translate(-44.3 -395.62)"/><path class="cls-1" d="M156.06,439.89q-9.19.38-18.4.33c-5.07,0-12.19.95-16.83-1.44l2.48,4.31c-1.69-13.24-2.31-26.64-3.29-39.95l-5,5a378.66,378.66,0,0,1,45.57-.79l-5-5c.16,3.14,1.67,37.07,1.18,37.11-6.36.55-6.42,10.56,0,10,9.7-.84,9.87-9.86,9.77-17.64q-.18-14.74-.95-29.47a5.11,5.11,0,0,0-5-5,378.66,378.66,0,0,0-45.57.79c-2.54.2-5.21,2.13-5,5q.81,11.07,1.63,22.13c.26,3.57.52,7.14.86,10.71.29,3,0,7.66,1.87,10.14,3.42,4.62,12.51,3.89,17.47,4,8.07.19,16.14.09,24.21-.24,6.41-.27,6.44-10.27,0-10Z" transform="translate(-44.3 -395.62)"/><path class="cls-1" d="M185.24,404.75q21.64,21.86,44.47,42.5c4.76,4.31,11.85-2.74,7.07-7.07Q214,419.54,192.31,397.67c-4.53-4.58-11.6,2.49-7.07,7.08Z" transform="translate(-44.3 -395.62)"/><path class="cls-1" d="M223.37,398.15c-8.72,17.11-26.73,27-35.61,44.07-3,5.71,5.67,10.77,8.64,5,8.84-17,26.85-26.89,35.6-44.08,2.92-5.72-5.71-10.79-8.63-5Z" transform="translate(-44.3 -395.62)"/></svg>