<svg id="Layer_1" data-name="Layer 1" xmlns="http://www.w3.org/2000/svg" viewBox="0 0 188.75 169.96"><defs><style>.cls-1{fill:#ffecbc;}</style></defs><title>Untitled-1</title><path class="cls-1" d="M6699.67,6871.09a13.75,13.75,0,0,0-.72-7.21c-2-4-7-6-11-7-15.11-1-29.2-3-44.37-2.44a285.42,285.42,0,0,0-10.9-31.94c-2.34-5.71-5.21-11.74-10.63-14.7-3.2-1.74-6.93-2.19-10.57-2.37-4.76-.23-9.84.06-13.77,2.76-4.51,3.1-6.51,8.64-8.38,13.78q-5.81,16.08-13.13,31.54c-14.56-4.55-30.39-.58-45.25,4.37a15,15,0,0,0-10,14c1,7,4,14,11,18,11,6,21,14,34.28,15.62a148.85,148.85,0,0,0-11.26,38.19c-1,6.55-1.18,14.27,3.8,18.66,3.29,2.89,8.11,3.49,12.4,2.6s8.18-3.06,12-5.21c3.28-1.84,6.56-3.69,9.75-5.69a114.57,114.57,0,0,0,23.05-19.18,60.78,60.78,0,0,0,41,28.25c6.7,1.18,14.83.6,18.53-5.1a15.58,15.58,0,0,0,2.07-6.09c1.33-8.72-1.12-17.71-5.5-25.36-4.51-7.88-11-14.49-17.73-20.52,14.26-3.94,26.47-11,37.65-21.17C6695.39,6880.75,6698.83,6876.16,6699.67,6871.09Z" transform="translate(-6515.99 -6800.36)"/><path d="M6704.49,6872.41c.86-6.21-.35-12-5.54-16a24.45,24.45,0,0,0-6.86-3.55c-2.95-1-5.94-1.14-9-1.38-13.15-1-26.27-2.55-39.48-2.08l4.82,3.67a290.79,290.79,0,0,0-9.46-28.35c-3-7.69-6.16-16-13.42-20.71-3.91-2.53-8.63-3.29-13.2-3.57-4.22-.27-8.78-.18-12.8,1.29-8.6,3.16-12.07,10.81-15,18.87q-5.62,15.46-12.63,30.34l5.65-2.29c-9.72-2.92-19.88-2.53-29.76-.62a133.19,133.19,0,0,0-14.56,3.82c-4.49,1.42-8.74,2.95-11.95,6.57a20.73,20.73,0,0,0-5.19,11.69c-.44,4.06,1.09,8.47,2.71,12.13a25.51,25.51,0,0,0,7.55,9.77c3.38,2.66,7.37,4.57,11,6.78,8.59,5.16,17.46,10.14,27.53,11.49l-3-7.34a157.52,157.52,0,0,0-9.44,27.53c-2,8.36-4.34,17.82-2.35,26.39,2.07,8.84,10.2,14.16,19.13,13.34,9.29-.85,18.05-6.8,25.79-11.63a120.76,120.76,0,0,0,24.47-20.2l-7.86-1c9.5,15.65,25.81,27.4,44,30.55,8.72,1.51,19.37.67,24.38-7.75,5.35-9,2.9-21.74-1-30.77-4.57-10.65-12.64-19.27-21.17-26.9l-2.2,8.35a94.33,94.33,0,0,0,28.41-13.31c8.79-6.13,18.31-14,20.45-25.15a5.14,5.14,0,0,0-3.49-6.15c-2.45-.67-5.64.83-6.15,3.5-1.75,9.05-10,15.25-17.21,20.09a85.92,85.92,0,0,1-24.67,11.38c-3.47,1-5.07,5.8-2.21,8.36,6.34,5.67,12.43,11.74,16.74,19.14,4,6.85,6.7,15.5,4.91,23.46-.68,3-2.14,4.93-5.11,5.81a20.43,20.43,0,0,1-9,.29,55.78,55.78,0,0,1-38-25.94,5.06,5.06,0,0,0-7.86-1,109.81,109.81,0,0,1-17.61,15.47c-3.39,2.35-6.91,4.49-10.49,6.54a90.46,90.46,0,0,1-10.32,5.52c-5.12,2.09-12.27,2.55-14.07-3.94s.42-14.12,1.85-20.39a145.51,145.51,0,0,1,8.76-26.51c1.13-2.54.55-6.86-3-7.34-7.38-1-13.92-3.94-20.32-7.63-3.12-1.8-6.17-3.7-9.29-5.52s-6.07-3.21-8.2-6.07a21.09,21.09,0,0,1-3.38-7.77,8.68,8.68,0,0,1,1.46-7.49c1.79-2.55,4.29-3.46,7.14-4.38,4.19-1.34,8.42-2.57,12.71-3.53,9-2,18.27-2.64,27.19,0a5,5,0,0,0,5.65-2.3q5.64-12,10.46-24.29c1.46-3.73,2.78-7.52,4.22-11.27,1.05-2.72,2.35-5.66,4.61-7.6s5.49-2.43,8.47-2.49c3.42-.08,7.31,0,10.5,1.36,5.93,2.56,8.35,10.16,10.51,15.67a291,291,0,0,1,9.47,28.36,5.07,5.07,0,0,0,4.82,3.67c10.94-.39,21.83.56,32.72,1.51,5.53.48,19.81-.35,18.55,8.81-.37,2.67.64,5.37,3.49,6.15C6700.67,6876.55,6704.12,6875.11,6704.49,6872.41Z" transform="translate(-6515.99 -6800.36)"/></svg>